# xmcd
#
# Track frame offsets: 
#        183
#        16528
#        45455
#        74233
#
# Disc length: 1171 seconds
#
# Revision: 2
# Processed by: cddbd v1.5.2PL0 Copyright (c) Steve Scherf et al.
# Submitted via: ExactAudioCopy v0.99pb5
#
DISCID=2c049104
DTITLE=Masterboy - Fall In Trance
DYEAR=1993
DGENRE=Eurodance
TTITLE0=Fall In Trance (Radio Edit)
TTITLE1=Fall In Trance (Organ Mix)
TTITLE2=Fall In Trance (Instrumental)
TTITLE3=Give It Up
EXTD=
EXTT0=
EXTT1=
EXTT2=
EXTT3=
PLAYORDER=
